<?xml version="1.0" encoding="UTF-8"?>
<svg id="Capa_1" data-name="Capa 1" xmlns="http://www.w3.org/2000/svg" viewBox="0 0 386.64 61.76">
  <defs>
    <style>
      .cls-1 {
        fill: #fff;
      }
    </style>
  </defs>
  <polygon class="cls-1" points="35.95 30.52 12.1 30.52 8.6 50.63 36.35 50.63 35.25 56.74 .22 56.74 10.07 0 44.72 0 43.63 6.11 16.31 6.11 13.15 24.41 37 24.41 35.95 30.52"/>
  <path class="cls-1" d="M60.79,35.17c.42-2.99-1.14-5.18-4.65-6.56l-4.86-1.77-1.62-.7c-5.46-2.48-8.02-5.99-7.66-10.49.2-2.26.96-4.27,2.33-6.01,1.37-1.73,3.18-3.08,5.44-4.01,2.25-.95,4.65-1.39,7.18-1.34,2.47.05,4.67.6,6.61,1.65,1.93,1.06,3.41,2.52,4.42,4.39,1.01,1.87,1.45,3.99,1.34,6.34l-5.3-.02c.19-2.52-.38-4.46-1.68-5.84-1.31-1.38-3.17-2.09-5.61-2.13-2.56-.02-4.7.57-6.41,1.81-1.73,1.24-2.71,2.92-2.98,5.05-.38,2.8,1.34,4.9,5.13,6.35l4.18,1.5,2.1.89c5.28,2.43,7.71,6.03,7.31,10.82-.19,2.31-.97,4.3-2.32,5.97-1.34,1.67-3.17,2.96-5.48,3.89-2.3.91-4.78,1.34-7.44,1.28-2.56-.02-4.91-.57-7.02-1.63-2.12-1.08-3.74-2.55-4.84-4.42-1.11-1.88-1.59-4-1.46-6.37l5.26.03c-.16,2.43.5,4.36,1.98,5.79,1.48,1.43,3.59,2.16,6.3,2.2,2.7.04,4.94-.55,6.7-1.77,1.76-1.22,2.78-2.84,3.06-4.9"/>
  <polygon class="cls-1" points="104.9 9.26 92.2 9.26 85.89 45.69 80.65 45.69 86.95 9.26 74.25 9.26 75.04 4.86 105.68 4.86 104.9 9.26"/>
  <polygon class="cls-1" points="110.34 45.68 105.09 45.68 112.19 4.86 117.44 4.86 110.34 45.68"/>
  <polygon class="cls-1" points="126.18 41.27 144.97 41.27 144.17 45.69 120.12 45.69 127.21 4.86 132.51 4.86 126.18 41.27"/>
  <path class="cls-1" d="M163.52,46.24c-2.6-.06-4.85-.67-6.77-1.88-1.91-1.19-3.42-2.95-4.52-5.28-1.12-2.33-1.71-4.94-1.82-7.83-.12-2.26.13-5.06.76-8.38.61-3.33,1.68-6.33,3.19-8.99,1.52-2.68,3.35-4.82,5.53-6.42,2.94-2.17,6.28-3.23,10.04-3.15,3.98.08,7.12,1.46,9.42,4.14,2.3,2.69,3.53,6.32,3.7,10.9.08,1.96-.12,4.46-.6,7.49-.48,3.02-1.33,5.83-2.54,8.44-1.23,2.6-2.79,4.78-4.67,6.53-3.29,3.06-7.19,4.55-11.69,4.46M177.85,20.62c.12-3.69-.53-6.53-1.94-8.56-1.4-2.04-3.48-3.08-6.25-3.16-2.5-.07-4.74.6-6.71,2.01-1.97,1.43-3.59,3.56-4.85,6.38-1.26,2.84-2.06,6.42-2.39,10.76l-.08,1.83c-.11,3.65.54,6.53,1.97,8.6,1.41,2.08,3.48,3.15,6.19,3.22,3.53.1,6.46-1.18,8.79-3.83,2.32-2.64,3.87-6.36,4.65-11.14.37-2.35.59-4.39.63-6.11"/>
  <polygon class="cls-1" points="228.92 61.6 221.6 61.6 226.16 35.38 198.44 35.38 193.89 61.6 186.55 61.6 196.42 4.85 203.75 4.85 199.49 29.26 227.17 29.26 231.41 4.85 238.78 4.85 228.92 61.6"/>
  <path class="cls-1" d="M256.16,46.24c-2.59-.06-4.84-.67-6.76-1.88-1.92-1.19-3.43-2.95-4.54-5.28-1.1-2.33-1.7-4.94-1.82-7.83-.1-2.26.14-5.06.77-8.38.61-3.33,1.68-6.33,3.19-8.99,1.52-2.68,3.35-4.82,5.53-6.42,2.93-2.17,6.28-3.23,10.03-3.15,3.99.08,7.12,1.46,9.42,4.14,2.3,2.69,3.53,6.32,3.69,10.9.07,1.96-.12,4.46-.6,7.49-.49,3.02-1.32,5.83-2.55,8.44-1.23,2.6-2.79,4.78-4.67,6.53-3.29,3.06-7.18,4.55-11.7,4.46M270.49,20.62c.12-3.69-.53-6.53-1.93-8.56-1.41-2.04-3.49-3.08-6.26-3.16-2.5-.07-4.75.6-6.72,2.01-1.97,1.43-3.58,3.56-4.85,6.38-1.26,2.84-2.06,6.42-2.4,10.76l-.08,1.83c-.11,3.65.54,6.53,1.97,8.6,1.42,2.08,3.48,3.15,6.19,3.22,3.54.1,6.47-1.18,8.79-3.83,2.33-2.64,3.88-6.36,4.63-11.14.38-2.35.59-4.39.65-6.11"/>
  <path class="cls-1" d="M310.28,40.3c-1.36,1.93-3.35,3.41-5.96,4.45-2.61,1.05-5.59,1.55-8.94,1.5-2.67-.05-5.01-.67-7-1.88-2.01-1.19-3.57-2.91-4.71-5.15-1.14-2.23-1.79-4.77-1.97-7.61-.12-2.23.15-5.24.83-9.03.68-3.79,1.87-7.08,3.57-9.84,1.7-2.76,3.82-4.88,6.39-6.33,2.54-1.46,5.46-2.15,8.75-2.11,3.79.08,6.82,1.21,9.07,3.38,2.24,2.18,3.53,5.24,3.85,9.18h-5.22c-.21-2.59-.98-4.57-2.33-5.95-1.35-1.39-3.21-2.13-5.58-2.21-3.51-.12-6.45,1.14-8.82,3.79-2.36,2.66-3.92,6.56-4.66,11.66l-.54,3.93-.08,2.13c0,3.69.76,6.53,2.27,8.56,1.51,2.01,3.63,3.03,6.35,3.07,3.95.1,7.08-.87,9.4-2.91l1.68-9.17h-9.19l.77-4.41h14.37l-2.33,14.95Z"/>
  <path class="cls-1" d="M341.83,35h-16.55l-5.58,10.69h-5.62l22.17-40.83h4.63l8.07,40.83h-5.18l-1.93-10.69ZM327.6,30.6h13.44l-3.39-19.04-10.04,19.04Z"/>
  <path class="cls-1" d="M372.15,29.2h-9.42l-2.86,16.49h-5.3l7.1-40.83,12.28.03c4.28.01,7.54,1.09,9.78,3.25,2.24,2.15,3.19,5.08,2.84,8.79-.21,2.56-1.14,4.81-2.78,6.76-1.66,1.95-3.86,3.42-6.62,4.42l6.34,17.21-.03.37h-5.6l-5.73-16.49ZM363.49,24.77l7.74.02c2.69,0,4.95-.71,6.81-2.14,1.86-1.44,2.94-3.35,3.25-5.74.28-2.33-.19-4.17-1.39-5.5-1.22-1.32-3.07-2.03-5.56-2.11l-8.15-.02-2.7,15.48Z"/>
</svg>